<?xml version="1.0" standalone="no"?>
<!DOCTYPE svg PUBLIC "-//W3C//DTD SVG 20010904//EN"
 "http://www.w3.org/TR/2001/REC-SVG-20010904/DTD/svg10.dtd">
<svg version="1.0" xmlns="http://www.w3.org/2000/svg"
 width="452.000000pt" height="452.000000pt" viewBox="0 0 452.000000 452.000000"
 preserveAspectRatio="xMidYMid meet">

<g transform="translate(0.000000,452.000000) scale(0.100000,-0.100000)"
fill="#000000" stroke="none">
<path d="M2280 4421 c-71 -22 -137 -77 -173 -145 -22 -41 -22 -45 -22 -616 0
-572 0 -575 22 -616 26 -49 92 -110 142 -132 24 -11 78 -17 168 -20 110 -4
133 -7 139 -21 3 -9 9 -59 11 -111 4 -80 2 -105 -16 -159 -38 -111 -11 -157
94 -155 48 1 78 8 129 32 116 54 260 213 326 360 l23 51 416 3 416 3 51 27
c29 15 67 45 86 68 68 78 68 82 68 669 0 601 1 595 -76 679 -32 36 -61 57
-100 71 -54 21 -71 21 -867 20 -447 0 -823 -4 -837 -8z m1644 -181 c56 -21 56
-24 56 -580 0 -563 1 -557 -61 -579 -22 -7 -171 -11 -453 -11 -355 0 -425 -2
-443 -15 -11 -8 -40 -54 -64 -102 -47 -95 -144 -231 -182 -256 l-24 -16 -6
102 c-7 124 -37 245 -68 270 -18 14 -43 17 -175 17 -165 0 -213 10 -233 48 -8
14 -11 189 -11 547 l0 527 29 29 29 29 791 0 c478 0 800 -4 815 -10z"/>
<path d="M2620 3890 l0 -90 315 0 315 0 0 90 0 90 -315 0 -315 0 0 -90z"/>
<path d="M3440 3890 l0 -90 135 0 136 0 -3 88 -3 87 -132 3 -133 3 0 -91z"/>
<path d="M2624 3517 c-3 -8 -4 -49 -2 -93 l3 -79 133 -3 132 -3 0 96 0 95
-130 0 c-100 0 -132 -3 -136 -13z"/>
<path d="M3074 3517 c-3 -8 -4 -49 -2 -93 l3 -79 315 0 315 0 0 90 0 90 -313
3 c-255 2 -313 0 -318 -11z"/>
<path d="M1755 4060 c-276 -38 -479 -175 -577 -389 -93 -203 -103 -504 -27
-845 20 -89 20 -89 0 -110 -40 -43 -63 -114 -62 -195 1 -140 56 -253 144 -294
40 -18 47 -26 47 -50 0 -46 30 -179 53 -232 12 -27 43 -78 69 -113 l48 -63 0
-150 c0 -173 -2 -180 -82 -255 -68 -65 -140 -104 -373 -204 -240 -104 -310
-139 -413 -207 -253 -167 -382 -385 -399 -670 l-6 -103 1813 0 1813 0 -6 90
c-29 400 -219 628 -702 840 -310 136 -369 165 -435 211 -38 27 -83 69 -99 93
l-31 45 0 160 0 161 45 56 c79 96 135 231 135 322 0 84 -85 131 -145 80 -19
-17 -30 -41 -40 -91 -19 -92 -70 -192 -127 -250 l-48 -48 0 -222 0 -222 31
-53 c42 -74 131 -158 229 -216 46 -27 178 -91 294 -141 246 -107 298 -133 386
-190 147 -95 231 -198 275 -337 14 -44 25 -86 25 -94 0 -12 -210 -14 -1600
-14 -1540 0 -1600 1 -1600 18 0 32 31 125 62 186 78 155 227 260 594 419 289
125 391 184 480 279 29 30 64 78 78 106 26 50 26 55 26 260 l0 208 -36 35
c-80 78 -134 216 -142 364 -3 57 -10 103 -16 107 -6 4 -26 8 -44 8 -75 0 -122
68 -122 175 0 70 9 85 78 135 l21 15 -23 96 c-40 160 -57 277 -63 424 -7 180
11 294 67 412 84 179 225 259 488 278 98 7 103 8 128 38 21 25 25 38 20 66 -9
56 -35 75 -108 77 -35 1 -90 -1 -123 -6z"/>
</g>
</svg>
